<svg xmlns="http://www.w3.org/2000/svg" viewBox="0 0 64 64">
  <title>SlideSorter</title>
  <rect width="64" height="64" rx="14" fill="#17231c"/>
  <path d="M13 22.5 35.5 11a6 6 0 0 1 8.6 5.4v20.7a6 6 0 0 1-3.3 5.4L18.3 54a6 6 0 0 1-8.7-5.4V27.9a6 6 0 0 1 3.4-5.4Z" fill="#a5d8a7"/>
  <path d="M19.6 21.5 38.8 12a6 6 0 0 1 8.6 5.4v20.7a6 6 0 0 1-3.3 5.4L27 52.9" fill="none" stroke="#f4f0e7" stroke-linecap="round" stroke-linejoin="round" stroke-width="4.5"/>
  <path d="M23 35.3h21.5M36.5 25.5l9.8 9.8-9.8 9.8" fill="none" stroke="#1e5e3b" stroke-linecap="round" stroke-linejoin="round" stroke-width="5"/>
</svg>
